<?xml version="1.0" encoding="utf-8" standalone="no"?><svg width="610" height="122" xmlns="http://www.w3.org/2000/svg"><style type="text/css">.st0{fill:#EC2C45;}</style><g><title>background</title><rect fill="none" id="canvas_background" height="124" width="612" y="-1" x="-1"/></g><g><title>Layer 1</title><path id="svg_1" d="m603.9,38.4c-0.5,0 -1,-0.5 -1,-1l0,-5.9l-2.5,6.5c-0.1,0.2 -0.3,0.4 -0.5,0.4c-0.2,0 -0.4,-0.2 -0.5,-0.4l-2.5,-6.5l0,5.9c0,0.5 -0.4,1 -1,1c-0.6,0 -1,-0.5 -1,-1l0,-7c0,-0.9 0.7,-1.6 1.6,-1.6c0.7,0 1.3,0.4 1.5,1.1l1.9,4.9l1.9,-4.9c0.2,-0.6 0.8,-1.1 1.5,-1.1c0.9,0 1.6,0.7 1.6,1.6l0,7c0,0.5 -0.5,1 -1,1m-14.5,0c-0.6,0 -1,-0.5 -1,-1l0,-6.8l-1.9,0c-0.5,0 -0.9,-0.4 -0.9,-0.9c0,-0.5 0.4,-0.9 0.9,-0.9l5.8,0c0.5,0 0.9,0.4 0.9,0.9c0,0.5 -0.4,0.9 -0.9,0.9l-1.9,0l0,6.8c0,0.5 -0.4,1 -1,1" class="st0"/><path id="svg_2" d="m75.8,25.9c0,-3.4 1,-6.5 2.8,-9.1c-5.3,1.6 -9.3,6.5 -9.3,12.3l0,10.3l6.4,0.3l0,-13.8l0.1,0z" class="st0"/><path id="svg_3" d="m69.4,96.9c0,5.9 3.9,10.8 9.3,12.3c-1.8,-2.6 -2.8,-5.7 -2.8,-9.1l0,-19.4l-6.4,0l0,16.2l-0.1,0z" class="st0"/><path id="svg_4" d="m85.5,80.8l-6.4,0l0,19.4c0,5.9 3.9,10.8 9.3,12.3c-1.8,-2.6 -2.8,-5.7 -2.8,-9.1l0,-22.6l-0.1,0z" class="st0"/><path id="svg_5" d="m85.5,22.7c0,-3.4 1.1,-6.5 2.8,-9.1c-5.3,1.6 -9.3,6.5 -9.3,12.3l0,14l6.4,0.3l0,-17.5l0.1,0z" class="st0"/><path id="svg_6" d="m12.8,18.6c-4.7,2.8 -7.9,7.9 -7.9,13.8l0,61.3c0,5.9 3.2,11 7.9,13.8c-0.9,-2.3 -1.5,-4.7 -1.5,-7.4l0,-74.2c0,-2.6 0.5,-5.1 1.5,-7.3" class="st0"/><path id="svg_7" d="m21,19.5c0,-2.6 0.5,-5.1 1.5,-7.4c-4.7,2.8 -7.9,7.9 -7.9,13.8l0,74.2c0,6.9 4.4,12.8 10.5,15.1c-2.6,-3.3 -4.1,-7.4 -4.1,-11.8l0,-83.9z" class="st0"/><path id="svg_8" d="m101.6,9.8c-7.1,0 -12.9,5.8 -12.9,12.9l0,21l-32.2,-1.7l0,-22.6c0,-8.9 -7.2,-16.1 -16.1,-16.1c-8.9,0 -16.1,7.2 -16.1,16.1l0,83.9c0,8.9 7.2,16.1 16.1,16.1c8.9,0 16.1,-7.2 16.1,-16.1l0,-25.8l32.3,0l0,25.8c0,7.1 5.8,12.9 12.9,12.9c7.1,0 12.9,-5.8 12.9,-12.9l0,-80.6c-0.1,-7.1 -5.9,-12.9 -13,-12.9" class="st0"/><path id="svg_9" d="m213,88.3l0,-23.9l-34.8,0l0,23.9c0,2.6 -2.1,4.7 -4.6,4.7c-2.6,0 -4.8,-2.2 -4.8,-4.7l0,-54.5c0,-2.5 2.2,-4.7 4.7,-4.7c2.6,0 4.7,2.2 4.7,4.7l0,22.2l34.8,0l0,-22.2c0,-2.5 2.1,-4.7 4.7,-4.7c2.6,0 4.7,2.2 4.7,4.7l0,54.5c0,2.6 -2.1,4.7 -4.7,4.7c-2.6,0.1 -4.7,-2.1 -4.7,-4.7" class="st0"/><path id="svg_10" d="m266.3,69.7c0,-8.6 -5,-16.3 -14.2,-16.3c-9.1,0 -14.2,7.7 -14.2,16.3c0,8.7 5.1,16.4 14.2,16.4c9.2,0.1 14.2,-7.7 14.2,-16.4m-37.2,0c0,-13.1 8.9,-23.9 23,-23.9c14.3,0 23,10.8 23,23.9c0,13.2 -8.8,24 -23,24c-14.1,0 -23,-10.7 -23,-24" class="st0"/><path id="svg_11" d="m310.6,66.4l27.9,0c-0.2,-6 -4.3,-13.6 -13.9,-13.6c-9.2,0.1 -13.5,7.4 -14,13.6m14,-20.5c13.7,0 22.2,10.7 22.2,22.7c0,2.6 -1.8,4.1 -5,4.1l-31.1,0c0.7,7.7 6.3,14.2 15.5,14.2c3.9,0 7.9,-1.2 11.3,-3.7c0.5,-0.4 1.1,-0.5 1.9,-0.5c1.9,0 3.4,1.5 3.4,3.4c0,1.2 -0.6,2.2 -1.5,2.8c-4.5,3.3 -9.9,4.9 -16,4.9c-13.6,0 -23.6,-9.6 -23.6,-24c0,-13.3 9.6,-23.9 22.9,-23.9" class="st0"/><path id="svg_12" d="m352.2,88.8l0,-55.4c0,-2.3 1.9,-4.2 4.2,-4.2c2.3,0 4.3,1.9 4.3,4.2l0,55.4c0,2.4 -2,4.3 -4.3,4.3c-2.3,0 -4.2,-1.9 -4.2,-4.3" class="st0"/><path id="svg_13" d="m366.2,85.6c0,-2.1 1.6,-3.7 3.7,-3.7c0.8,0 1.5,0.3 2.1,0.7c3.5,2.6 8,4.3 12.8,4.3c6.4,0 9.8,-2.6 9.8,-6.5c0,-4.5 -5.2,-6 -11,-7.4c-7.7,-1.8 -16.8,-3.9 -16.8,-13.7c0,-7.3 6.2,-13.5 17.4,-13.5c6.3,0 11.3,1.9 15.2,4.7c0.8,0.7 1.5,1.6 1.5,2.8c0,1.9 -1.6,3.5 -3.5,3.5c-0.7,0 -1.4,-0.3 -1.9,-0.7c-2.9,-2.2 -6.9,-3.5 -11.2,-3.5c-5.8,0 -9.4,2.3 -9.4,5.9c0,4 4.9,5.3 10.6,6.6c7.9,1.8 17.4,4 17.4,14.4c0,7.8 -6.4,14 -18.4,14c-6.3,0 -12,-1.6 -16.6,-5.1c-1.1,-0.4 -1.7,-1.6 -1.7,-2.8" class="st0"/><path id="svg_14" d="m413.9,81.8c3.2,0 5.9,2.7 5.9,5.9c0,3.2 -2.7,5.9 -5.9,5.9c-3.2,0 -5.9,-2.7 -5.9,-5.9c0.1,-3.2 2.7,-5.9 5.9,-5.9" class="st0"/><path id="svg_15" d="m501.2,69.7c0,-8.6 -5,-16.3 -14.2,-16.3c-9.1,0 -14.2,7.7 -14.2,16.3c0,8.7 5.1,16.4 14.2,16.4c9.2,0.1 14.2,-7.7 14.2,-16.4m-37.2,0c0,-13.1 8.9,-23.9 23,-23.9c14.3,0 23,10.8 23,23.9c0,13.2 -8.8,24 -23,24c-14.1,0 -23,-10.7 -23,-24" class="st0"/><path id="svg_16" d="m580.4,59.6l0,29.2c0,2.3 -2,4.2 -4.3,4.2c-2.3,0 -4.2,-1.9 -4.2,-4.2l0,-26.6c0,-5.3 -2.4,-7.8 -7.9,-7.8c-4.6,0 -9.2,5.2 -11.3,8.5l0,26c0,2.3 -1.9,4.2 -4.3,4.2c-2.3,0 -4.3,-1.9 -4.3,-4.2l0,-26.6c0,-5.3 -2.3,-7.8 -8,-7.8c-4.4,0 -8.9,5.5 -11.2,8.8l0,25.6c0,2.3 -2,4.2 -4.2,4.2c-2.4,0 -4.3,-1.9 -4.3,-4.2l0,-38.1c0,-2.4 1.9,-4.3 4.1,-4.3c2.4,0 4.3,1.9 4.3,4.3l0,2.6c1.9,-2.8 7.9,-7.6 14.7,-7.6c6.9,0 11,3.6 12.4,8.5c2.6,-4.3 8.8,-8.5 15.5,-8.5c8.6,0.1 13,4.7 13,13.8" class="st0"/><path id="svg_17" d="m445.4,45.9c6.5,0 11,2.1 14.5,5.3c0.7,0.7 1.3,1.8 1.3,2.8c0,2.2 -1.7,3.9 -3.8,3.9c-1,0 -1.9,-0.4 -2.6,-0.9c-2.6,-2.5 -5.6,-3.5 -9.2,-3.5c-9,0 -14.7,6.9 -14.7,16.3c0,9.4 5.8,16.1 14.7,16.4c6.1,0.2 12.1,-4.2 17,-11.9c0.6,-1 1.5,-2.7 2.2,-3.7c1.4,-1.8 2.4,-0.9 3.2,-0.1c1.5,1.6 1.5,5.3 0.5,7.1c-2.8,5.1 -5.1,7.5 -7.7,10.1c-3.7,3.6 -9.1,6 -15.7,6c-13.8,0 -23.2,-10.3 -23.2,-24c0.2,-13.6 9.7,-23.8 23.5,-23.8" class="st0"/><path id="svg_18" d="m307.8,85.6c0,1.6 -4.6,5.2 -7.9,6.8c-1.9,0.9 -3.8,1.3 -6.5,1.3c-7.2,0 -10.9,-4.1 -10.9,-11.2l0,-28l-4.3,0c-2,0 -3.8,-1.7 -3.8,-3.8c0,-2 1.8,-3.7 3.8,-3.7l4.3,0l0,-8.7c0,-2.4 1.9,-4.3 4.3,-4.3c2.3,0 4.2,1.9 4.2,4.3l0,8.7l6,0c2.1,0 3.8,1.7 3.8,3.7c0,2.1 -1.7,3.8 -3.8,3.8l-6,0l0,26.1c0,3.2 1.5,5.6 4.4,5.6c5.2,0 9.3,-8.1 11.6,-8.1c2.2,0 0.8,5.4 0.8,7.5" class="st0"/></g></svg>