<?xml version="1.0" encoding="UTF-8" standalone="no"?><svg version="1.1" id="Réteg_1" xmlns="http://www.w3.org/2000/svg" xmlns:xlink="http://www.w3.org/1999/xlink" x="0px" y="0px" viewBox="0 0 610 122" style="enable-background:new 0 0 610 122;" xml:space="preserve"><style type="text/css">.st0{fill:none;}.st1{fill:#EC2C45;}</style><g><rect id="canvas_background" x="-1" y="-1" class="st0" width="612" height="124"/></g><g><path id="svg_1" class="st1" d="M603.9,38.4c-0.5,0-1-0.5-1-1v-5.9l-2.5,6.5c-0.1,0.2-0.3,0.4-0.5,0.4s-0.4-0.2-0.5-0.4l-2.5-6.5	v5.9c0,0.5-0.4,1-1,1s-1-0.5-1-1v-7c0-0.9,0.7-1.6,1.6-1.6c0.7,0,1.3,0.4,1.5,1.1l1.9,4.9l1.9-4.9c0.2-0.6,0.8-1.1,1.5-1.1	c0.9,0,1.6,0.7,1.6,1.6v7C604.9,37.9,604.4,38.4,603.9,38.4 M589.4,38.4c-0.6,0-1-0.5-1-1v-6.8h-1.9c-0.5,0-0.9-0.4-0.9-0.9	s0.4-0.9,0.9-0.9h5.8c0.5,0,0.9,0.4,0.9,0.9s-0.4,0.9-0.9,0.9h-1.9v6.8C590.4,37.9,590,38.4,589.4,38.4"/><path id="svg_2" class="st1" d="M75.8,25.9c0-3.4,1-6.5,2.8-9.1c-5.3,1.6-9.3,6.5-9.3,12.3v10.3l6.4,0.3L75.8,25.9	C75.7,25.9,75.8,25.9,75.8,25.9z"/><path id="svg_3" class="st1" d="M69.4,96.9c0,5.9,3.9,10.8,9.3,12.3c-1.8-2.6-2.8-5.7-2.8-9.1V80.7h-6.4L69.4,96.9	C69.5,96.9,69.4,96.9,69.4,96.9z"/><path id="svg_4" class="st1" d="M85.5,80.8h-6.4v19.4c0,5.9,3.9,10.8,9.3,12.3c-1.8-2.6-2.8-5.7-2.8-9.1L85.5,80.8	C85.6,80.8,85.5,80.8,85.5,80.8z"/><path id="svg_5" class="st1" d="M85.5,22.7c0-3.4,1.1-6.5,2.8-9.1C83,15.2,79,20.1,79,25.9v14l6.4,0.3L85.5,22.7L85.5,22.7z"/><path id="svg_6" class="st1" d="M12.8,18.6c-4.7,2.8-7.9,7.9-7.9,13.8v61.3c0,5.9,3.2,11,7.9,13.8c-0.9-2.3-1.5-4.7-1.5-7.4V25.9	C11.3,23.3,11.8,20.8,12.8,18.6"/><path id="svg_7" class="st1" d="M21,19.5c0-2.6,0.5-5.1,1.5-7.4c-4.7,2.8-7.9,7.9-7.9,13.8v74.2c0,6.9,4.4,12.8,10.5,15.1	c-2.6-3.3-4.1-7.4-4.1-11.8C21,103.4,21,19.5,21,19.5z"/><path id="svg_8" class="st1" d="M101.6,9.8c-7.1,0-12.9,5.8-12.9,12.9v21L56.5,42V19.4c0-8.9-7.2-16.1-16.1-16.1	s-16.1,7.2-16.1,16.1v83.9c0,8.9,7.2,16.1,16.1,16.1s16.1-7.2,16.1-16.1V77.5h32.3v25.8c0,7.1,5.8,12.9,12.9,12.9	s12.9-5.8,12.9-12.9V22.7C114.5,15.6,108.7,9.8,101.6,9.8"/><path id="svg_9" class="st1" d="M213,88.3V64.4h-34.8v23.9c0,2.6-2.1,4.7-4.6,4.7c-2.6,0-4.8-2.2-4.8-4.7V33.8	c0-2.5,2.2-4.7,4.7-4.7c2.6,0,4.7,2.2,4.7,4.7V56H213V33.8c0-2.5,2.1-4.7,4.7-4.7c2.6,0,4.7,2.2,4.7,4.7v54.5	c0,2.6-2.1,4.7-4.7,4.7C215.1,93.1,213,90.9,213,88.3"/><path id="svg_10" class="st1" d="M266.3,69.7c0-8.6-5-16.3-14.2-16.3c-9.1,0-14.2,7.7-14.2,16.3c0,8.7,5.1,16.4,14.2,16.4	C261.3,86.2,266.3,78.4,266.3,69.7 M229.1,69.7c0-13.1,8.9-23.9,23-23.9c14.3,0,23,10.8,23,23.9c0,13.2-8.8,24-23,24	C238,93.7,229.1,83,229.1,69.7"/><path id="svg_11" class="st1" d="M310.6,66.4h27.9c-0.2-6-4.3-13.6-13.9-13.6C315.4,52.9,311.1,60.2,310.6,66.4 M324.6,45.9	c13.7,0,22.2,10.7,22.2,22.7c0,2.6-1.8,4.1-5,4.1h-31.1c0.7,7.7,6.3,14.2,15.5,14.2c3.9,0,7.9-1.2,11.3-3.7	c0.5-0.4,1.1-0.5,1.9-0.5c1.9,0,3.4,1.5,3.4,3.4c0,1.2-0.6,2.2-1.5,2.8c-4.5,3.3-9.9,4.9-16,4.9c-13.6,0-23.6-9.6-23.6-24	C301.7,56.5,311.3,45.9,324.6,45.9"/><path id="svg_12" class="st1" d="M352.2,88.8V33.4c0-2.3,1.9-4.2,4.2-4.2c2.3,0,4.3,1.9,4.3,4.2v55.4c0,2.4-2,4.3-4.3,4.3	S352.2,91.2,352.2,88.8"/><path id="svg_13" class="st1" d="M366.2,85.6c0-2.1,1.6-3.7,3.7-3.7c0.8,0,1.5,0.3,2.1,0.7c3.5,2.6,8,4.3,12.8,4.3	c6.4,0,9.8-2.6,9.8-6.5c0-4.5-5.2-6-11-7.4c-7.7-1.8-16.8-3.9-16.8-13.7c0-7.3,6.2-13.5,17.4-13.5c6.3,0,11.3,1.9,15.2,4.7	c0.8,0.7,1.5,1.6,1.5,2.8c0,1.9-1.6,3.5-3.5,3.5c-0.7,0-1.4-0.3-1.9-0.7c-2.9-2.2-6.9-3.5-11.2-3.5c-5.8,0-9.4,2.3-9.4,5.9	c0,4,4.9,5.3,10.6,6.6c7.9,1.8,17.4,4,17.4,14.4c0,7.8-6.4,14-18.4,14c-6.3,0-12-1.6-16.6-5.1C366.8,88,366.2,86.8,366.2,85.6"/><path id="svg_14" class="st1" d="M413.9,81.8c3.2,0,5.9,2.7,5.9,5.9c0,3.2-2.7,5.9-5.9,5.9c-3.2,0-5.9-2.7-5.9-5.9	C408.1,84.5,410.7,81.8,413.9,81.8"/><path id="svg_15" class="st1" d="M501.2,69.7c0-8.6-5-16.3-14.2-16.3c-9.1,0-14.2,7.7-14.2,16.3c0,8.7,5.1,16.4,14.2,16.4	C496.2,86.2,501.2,78.4,501.2,69.7 M464,69.7c0-13.1,8.9-23.9,23-23.9c14.3,0,23,10.8,23,23.9c0,13.2-8.8,24-23,24	C472.9,93.7,464,83,464,69.7"/><path id="svg_16" class="st1" d="M580.4,59.6v29.2c0,2.3-2,4.2-4.3,4.2s-4.2-1.9-4.2-4.2V62.2c0-5.3-2.4-7.8-7.9-7.8	c-4.6,0-9.2,5.2-11.3,8.5v26c0,2.3-1.9,4.2-4.3,4.2c-2.3,0-4.3-1.9-4.3-4.2V62.3c0-5.3-2.3-7.8-8-7.8c-4.4,0-8.9,5.5-11.2,8.8v25.6	c0,2.3-2,4.2-4.2,4.2c-2.4,0-4.3-1.9-4.3-4.2V50.8c0-2.4,1.9-4.3,4.1-4.3c2.4,0,4.3,1.9,4.3,4.3v2.6c1.9-2.8,7.9-7.6,14.7-7.6	c6.9,0,11,3.6,12.4,8.5c2.6-4.3,8.8-8.5,15.5-8.5C576,45.9,580.4,50.5,580.4,59.6"/><path id="svg_17" class="st1" d="M445.4,45.9c6.5,0,11,2.1,14.5,5.3c0.7,0.7,1.3,1.8,1.3,2.8c0,2.2-1.7,3.9-3.8,3.9	c-1,0-1.9-0.4-2.6-0.9c-2.6-2.5-5.6-3.5-9.2-3.5c-9,0-14.7,6.9-14.7,16.3s5.8,16.1,14.7,16.4c6.1,0.2,12.1-4.2,17-11.9	c0.6-1,1.5-2.7,2.2-3.7c1.4-1.8,2.4-0.9,3.2-0.1c1.5,1.6,1.5,5.3,0.5,7.1c-2.8,5.1-5.1,7.5-7.7,10.1c-3.7,3.6-9.1,6-15.7,6	c-13.8,0-23.2-10.3-23.2-24C422.1,56.1,431.6,45.9,445.4,45.9"/><path id="svg_18" class="st1" d="M307.8,85.6c0,1.6-4.6,5.2-7.9,6.8c-1.9,0.9-3.8,1.3-6.5,1.3c-7.2,0-10.9-4.1-10.9-11.2v-28h-4.3	c-2,0-3.8-1.7-3.8-3.8c0-2,1.8-3.7,3.8-3.7h4.3v-8.7c0-2.4,1.9-4.3,4.3-4.3c2.3,0,4.2,1.9,4.2,4.3V47h6c2.1,0,3.8,1.7,3.8,3.7	c0,2.1-1.7,3.8-3.8,3.8h-6v26.1c0,3.2,1.5,5.6,4.4,5.6c5.2,0,9.3-8.1,11.6-8.1C309.2,78.1,307.8,83.5,307.8,85.6"/></g></svg>